<svg width="15" height="7" viewBox="0 0 15 7" fill="none" xmlns="http://www.w3.org/2000/svg">
<path d="M3.76665 6.9C2.91796 6.9 2.10403 6.56286 1.50391 5.96274C0.903792 5.36263 0.56665 4.54869 0.56665 3.7C0.56665 2.85131 0.903792 2.03737 1.50391 1.43726C2.10403 0.837142 2.91796 0.5 3.76665 0.5L11.2333 0.5C12.082 0.5 12.8959 0.837142 13.4961 1.43726C14.0962 2.03737 14.4333 2.85131 14.4333 3.7C14.4333 4.54869 14.0962 5.36263 13.4961 5.96274C12.8959 6.56286 12.082 6.9 11.2333 6.9H9.09998V4.23333C9.09998 3.52609 8.81903 2.84781 8.31894 2.34772C7.81884 1.84762 7.14056 1.56667 6.43332 1.56667C5.72607 1.56667 5.0478 1.84762 4.5477 2.34772C4.0476 2.84781 3.76665 3.52609 3.76665 4.23333V6.9Z" fill="white"/>
</svg>
