<svg width="12" height="15" viewBox="0 0 12 15" fill="none" xmlns="http://www.w3.org/2000/svg">
<path d="M4.43328 0.633333C4.00894 0.633333 3.60197 0.801904 3.30191 1.10196C3.00186 1.40202 2.83328 1.80899 2.83328 2.23333V7.08667C2.23096 7.20962 1.68961 7.5369 1.30085 8.01312C0.912102 8.48934 0.699826 9.08525 0.699951 9.7C0.699951 10.973 1.20566 12.1939 2.10584 13.0941C3.00601 13.9943 4.22691 14.5 5.49995 14.5H6.03328C7.44777 14.5 8.80433 13.9381 9.80452 12.9379C10.8047 11.9377 11.3666 10.5812 11.3666 9.16667V8.2568C11.3666 7.64942 11.1253 7.06692 10.6959 6.63743C10.2664 6.20795 9.68387 5.96667 9.07648 5.96667H6.03328V2.23333C6.03328 1.80899 5.86471 1.40202 5.56466 1.10196C5.2646 0.801904 4.85763 0.633333 4.43328 0.633333Z" fill="white"/>
</svg>
